<svg xmlns="http://www.w3.org/2000/svg" viewBox="0 0 200 200" width="200" height="200">
  <rect width="200" height="200" rx="32" fill="#111111"/>
  <!-- Center node -->
  <circle cx="100" cy="100" r="14" fill="white"/>
  <!-- Outer nodes -->
  <circle cx="100" cy="40" r="10" fill="white"/>
  <circle cx="100" cy="160" r="10" fill="white"/>
  <circle cx="40" cy="100" r="10" fill="white"/>
  <circle cx="160" cy="100" r="10" fill="white"/>
  <circle cx="55" cy="55" r="9" fill="white"/>
  <circle cx="145" cy="55" r="9" fill="white"/>
  <circle cx="55" cy="145" r="9" fill="white"/>
  <circle cx="145" cy="145" r="9" fill="white"/>
  <!-- Spokes -->
  <line x1="100" y1="86" x2="100" y2="50" stroke="white" stroke-width="3.5"/>
  <line x1="100" y1="114" x2="100" y2="150" stroke="white" stroke-width="3.5"/>
  <line x1="86" y1="100" x2="50" y2="100" stroke="white" stroke-width="3.5"/>
  <line x1="114" y1="100" x2="150" y2="100" stroke="white" stroke-width="3.5"/>
  <line x1="90" y1="90" x2="63" y2="63" stroke="white" stroke-width="3.5"/>
  <line x1="110" y1="90" x2="137" y2="63" stroke="white" stroke-width="3.5"/>
  <line x1="90" y1="110" x2="63" y2="137" stroke="white" stroke-width="3.5"/>
  <line x1="110" y1="110" x2="137" y2="137" stroke="white" stroke-width="3.5"/>
</svg>
