<svg xmlns="http://www.w3.org/2000/svg" viewBox="0 0 100 100">
  <rect width="100" height="100" rx="20" fill="black" />
  <g fill="white" stroke="white" stroke-width="6" stroke-linecap="round">
    <circle cx="50" cy="50" r="12" stroke="none" />
    
    <line x1="50" y1="40" x2="50" y2="18" />
    <circle cx="50" cy="18" r="7" stroke="none" />
    
    <line x1="50" y1="60" x2="50" y2="82" />
    <circle cx="50" cy="82" r="7" stroke="none" />
    
    <line x1="40" y1="50" x2="18" y2="50" />
    <circle cx="18" cy="50" r="7" stroke="none" />
    
    <line x1="60" y1="50" x2="82" y2="50" />
    <circle cx="82" cy="50" r="7" stroke="none" />
    
    <!-- Diagonals -->
    <line x1="42.9" y1="42.9" x2="27" y2="27" />
    <circle cx="27" cy="27" r="7" stroke="none" />
    
    <line x1="57.1" y1="42.9" x2="73" y2="27" />
    <circle cx="73" cy="27" r="7" stroke="none" />
    
    <line x1="42.9" y1="57.1" x2="27" y2="73" />
    <circle cx="27" cy="73" r="7" stroke="none" />
    
    <line x1="57.1" y1="57.1" x2="73" y2="73" />
    <circle cx="73" cy="73" r="7" stroke="none" />
  </g>
</svg>
